ffmpeg version N-91024-g293a6e8332 Copyright (c) 2000-2018 the FFmpeg developers
  built with gcc 7.3.0 (GCC)
  configuration: --enable-gpl --enable-version3 --enable-sdl2 --enable-bzlib --enable-fontconfig --enable-gnutls --enable-iconv --enable-libass --enable-libbluray --enable-libfreetype --enable-libmp3lame --enable-libopencore-amrnb --enable-libopencore-amrwb --enable-libopenjpeg --enable-libopus --enable-libshine --enable-libsnappy --enable-libsoxr --enable-libtheora --enable-libtwolame --enable-libvpx --enable-libwavpack --enable-libwebp --enable-libx264 --enable-libx265 --enable-libxml2 --enable-libzimg --enable-lzma --enable-zlib --enable-gmp --enable-libvidstab --enable-libvorbis --enable-libvo-amrwbenc --enable-libmysofa --enable-libspeex --enable-libxvid --enable-libaom --enable-libmfx --enable-amf --enable-ffnvcodec --enable-cuvid --enable-d3d11va --enable-nvenc --enable-nvdec --enable-dxva2 --enable-avisynth
  libavutil      56. 18.100 / 56. 18.100
  libavcodec     58. 19.101 / 58. 19.101
  libavformat    58. 13.102 / 58. 13.102
  libavdevice    58.  4.100 / 58.  4.100
  libavfilter     7. 21.100 /  7. 21.100
  libswscale      5.  2.100 /  5.  2.100
  libswresample   3.  2.100 /  3.  2.100
  libpostproc    55.  2.100 / 55.  2.100
Input #0, mov,mp4,m4a,3gp,3g2,mj2, from '/zfspool/video/test720/test720.mp4':
  Metadata:
    major_brand     : mp42
    minor_version   : 0
    compatible_brands: isommp42
    creation_time   : 2018-05-17T20:41:40.000000Z
  Duration: 00:02:29.30, start: 0.000000, bitrate: 2295 kb/s
    Stream #0:0(und): Video: h264 (Main) (avc1 / 0x31637661), yuv420p(tv, bt709), 1280x720 [SAR 1:1 DAR 16:9], 2164 kb/s, 29.97 fps, 29.97 tbr, 2997 tbn, 59.94 tbc (default)
    Metadata:
      creation_time   : 2018-05-17T20:41:40.000000Z
      handler_name    : ISO Media file produced by Google Inc. Created on: 05/17/2018.
    Stream #0:1(eng): Audio: aac (LC) (mp4a / 0x6134706D), 44100 Hz, stereo, fltp, 127 kb/s (default)
    Metadata:
      creation_time   : 2018-05-17T20:41:40.000000Z
      handler_name    : ISO Media file produced by Google Inc. Created on: 05/17/2018.
Stream mapping:
  Stream #0:0 -> #0:0 (h264 (native) -> h264 (libx264))
  Stream #0:1 -> #0:1 (aac (native) -> aac (native))
Press [q] to stop, [?] for help
[libx264 @ 000001f7cf88b280] using SAR=1/1
[libx264 @ 000001f7cf88b280] using cpu capabilities: MMX2 SSE2Fast SSSE3 SSE4.2 AVX FMA3 BMI2 AVX2
[libx264 @ 000001f7cf88b280] profile High, level 4.0
[libx264 @ 000001f7cf88b280] 264 - core 155 r2901 7d0ff22 - H.264/MPEG-4 AVC codec - Copyleft 2003-2018 - http://www.videolan.org/x264.html - options: cabac=1 ref=1 deblock=1:0:0 analyse=0x3:0x113 me=hex subme=2 psy=1 psy_rd=1.00:0.00 mixed_ref=0 me_range=16 chroma_me=1 trellis=0 8x8dct=1 cqm=0 deadzone=21,11 fast_pskip=1 chroma_qp_offset=0 threads=6 lookahead_threads=2 sliced_threads=0 nr=0 decimate=1 interlaced=0 bluray_compat=0 constrained_intra=0 bframes=3 b_pyramid=2 b_adapt=1 b_bias=0 direct=1 weightb=1 open_gop=0 weightp=1 keyint=250 keyint_min=25 scenecut=40 intra_refresh=0 rc_lookahead=10 rc=abr mbtree=1 bitrate=8000 ratetol=1.0 qcomp=0.60 qpmin=0 qpmax=69 qpstep=4 ip_ratio=1.40 aq=1:1.00
Output #0, mp4, to '/zfspool/video/test720/test720.1080p.mp4':
  Metadata:
    major_brand     : mp42
    minor_version   : 0
    compatible_brands: isommp42
    encoder         : Lavf58.13.102
    Stream #0:0(und): Video: h264 (libx264) (avc1 / 0x31637661), yuv420p(progressive), 1920x1080 [SAR 1:1 DAR 16:9], q=-1--1, 8000 kb/s, 29.97 fps, 11988 tbn, 29.97 tbc (default)
    Metadata:
      creation_time   : 2018-05-17T20:41:40.000000Z
      handler_name    : ISO Media file produced by Google Inc. Created on: 05/17/2018.
      encoder         : Lavc58.19.101 libx264
    Side data:
      cpb: bitrate max/min/avg: 0/0/8000000 buffer size: 0 vbv_delay: -1
    Stream #0:1(eng): Audio: aac (LC) (mp4a / 0x6134706D), 44100 Hz, stereo, fltp, 384 kb/s (default)
    Metadata:
      creation_time   : 2018-05-17T20:41:40.000000Z
      handler_name    : ISO Media file produced by Google Inc. Created on: 05/17/2018.
      encoder         : Lavc58.19.101 aac
frame=   44 fps=0.0 q=0.0 size=       0kB time=00:00:01.41 bitrate=   0.3kbits/s speed=2.81x    frame=   82 fps= 81 q=0.0 size=       0kB time=00:00:02.83 bitrate=   0.1kbits/s speed=2.81x    frame=  102 fps= 60 q=0.0 size=    1280kB time=00:00:03.29 bitrate=3180.3kbits/s speed=1.93x    frame=  109 fps= 49 q=8.0 size=    4864kB time=00:00:03.76 bitrate=10592.8kbits/s speed=1.68x    frame=  118 fps= 43 q=17.0 size=    7424kB time=00:00:03.76 bitrate=16167.9kbits/s speed=1.36x    frame=  127 fps= 38 q=19.0 size=    8448kB time=00:00:04.22 bitrate=16376.2kbits/s speed=1.25x    frame=  137 fps= 35 q=21.0 size=    8960kB time=00:00:04.69 bitrate=15649.0kbits/s speed=1.21x    frame=  145 fps= 33 q=22.0 size=    9216kB time=00:00:04.69 bitrate=16096.1kbits/s speed=1.07x    frame=  157 fps= 31 q=23.0 size=    9984kB time=00:00:05.15 bitrate=15866.5kbits/s speed=1.02x    frame=  165 fps= 29 q=25.0 size=   10752kB time=00:00:05.61 bitrate=15674.9kbits/s speed=   1x    frame=  175 fps= 28 q=26.0 size=   11264kB time=00:00:05.61 bitrate=16421.3kbits/s speed=0.913x    frame=  184 fps= 27 q=27.0 size=   11776kB time=00:00:06.08 bitrate=15857.2kbits/s speed=0.905x    frame=  194 fps= 27 q=28.0 size=   12544kB time=00:00:06.54 bitrate=15693.4kbits/s speed=0.906x    frame=  204 fps= 26 q=29.0 size=   12800kB time=00:00:06.54 bitrate=16013.7kbits/s speed=0.846x    frame=  216 fps= 26 q=29.0 size=   13312kB time=00:00:07.01 bitrate=15551.3kbits/s speed=0.846x    frame=  228 fps= 26 q=30.0 size=   13824kB time=00:00:07.47 bitrate=15146.3kbits/s speed=0.84x    frame=  238 fps= 25 q=30.0 size=   14080kB time=00:00:07.94 bitrate=14524.7kbits/s speed=0.843x    frame=  250 fps= 25 q=30.0 size=   14336kB time=00:00:08.40 bitrate=13971.7kbits/s speed=0.84x    